# xmcd
#
# Track frame offsets: 
#        150
#        18780
#        39423
#        68941
#        92328
#        108227
#        133264
#        149163
#        174881
#        211747
#        231993
#        256818
#        275011
#
# Disc length: 4028 seconds
#
# Revision: 1
# Processed by: cddbd v1.5.2PL0 Copyright (c) Steve Scherf et al.
# Submitted via: ExactAudioCopy v0.99pb5
#
DISCID=b30fba0d
DTITLE=Сергей Наговицын - Избранное
DYEAR=2005
DGENRE=Chanson
TTITLE0=Охота
TTITLE1=Кабакам - кабацкий дым
TTITLE2=Озоновый слой
TTITLE3=Глашка
TTITLE4=Улица
TTITLE5=Сизый
TTITLE6=Дори - Дори...
TTITLE7=Зона
TTITLE8=Приговор
TTITLE9=Девочка - проказница
TTITLE10=Этап
TTITLE11=Городские встречи
TTITLE12=Там на ёлках...
EXTD=
EXTT0=
EXTT1=
EXTT2=
EXTT3=
EXTT4=
EXTT5=
EXTT6=
EXTT7=
EXTT8=
EXTT9=
EXTT10=
EXTT11=
EXTT12=
PLAYORDER=
